<svg width="100%" height="100%" viewBox="0 0 120 44" fill="none" xmlns="http://www.w3.org/2000/svg">
<path d="M0 43.5022V0.000766536H12.3954C14.5393 -0.020996 16.6619 0.420877 18.6131 1.29515C20.4847 2.13889 22.079 3.4813 23.2154 5.17042C24.4027 6.95558 25.012 9.05305 24.9627 11.186C25.0137 13.35 24.2953 15.4637 22.9315 17.1621C21.6408 18.7938 19.9145 20.0402 17.9453 20.762V21.2302C20.1673 21.8263 22.1537 23.0703 23.6432 24.7986C25.2986 26.6346 26.1263 28.9217 26.1263 31.66C26.1449 33.3975 25.7549 35.1156 24.9867 36.6802C24.279 38.1458 23.2395 39.4324 21.9478 40.4413C20.6568 41.4313 19.203 42.1965 17.6494 42.7036C16.0565 43.2283 14.3872 43.4941 12.7073 43.4904L0 43.5022ZM9.46449 18.067L11.1878 17.949C11.7639 17.9151 12.3258 17.7598 12.8356 17.4937C13.3453 17.2277 13.7911 16.857 14.1427 16.4068C14.9638 15.4389 15.3743 14.0632 15.3743 12.2797C15.3743 10.4961 15.0038 9.09554 14.2627 8.07787C13.9377 7.61133 13.5062 7.22605 13.0029 6.9528C12.4995 6.67955 11.9382 6.52591 11.3638 6.50415L9.46449 6.38612V18.067ZM9.46449 36.8375L11.8996 36.7195C12.5379 36.7072 13.1639 36.5447 13.7253 36.2456C14.2866 35.9465 14.7671 35.5194 15.1264 35.0002C15.9101 33.9144 16.3019 32.4796 16.3019 30.6961C16.3019 28.9126 15.8661 27.4975 14.9944 26.451C14.5883 25.946 14.0737 25.5357 13.4875 25.2493C12.9013 24.9629 12.258 24.8077 11.6037 24.7947L9.46449 24.6766V36.8375Z" fill="#111827"/>
<path d="M26.2426 43.5025L35.3193 0.00102997H46.4831L56.0356 43.5025H46.751L45.3195 34.9572H36.6628L35.1713 43.5025H26.2426ZM37.7584 27.9935H44.2359L41.281 11.2531H40.8052L37.7584 27.9935Z" fill="#111827"/>
<path d="M58.5945 43.5025V0.00102997H71.0619C72.41 0.00150033 73.753 0.165351 75.0604 0.488882C76.3869 0.814001 77.6612 1.31846 78.847 1.98785C80.0166 2.64039 81.0857 3.45381 82.0218 4.40351C82.9655 5.37702 83.7094 6.52049 84.213 7.77126C84.7659 9.11851 85.0444 10.5595 85.0327 12.0124C85.0327 17.1008 82.4536 20.8672 77.2955 23.3117L86.7 43.5025H76.3039L68.5468 24.8658H68.039L68.099 43.5025H58.5945ZM68.059 19.4679L70.2702 19.4089C70.9701 19.406 71.6597 19.2427 72.2843 18.932C72.909 18.6213 73.4515 18.1717 73.8688 17.6188C74.7805 16.4621 75.2376 14.9356 75.2403 13.0393C75.3055 11.4516 74.7985 9.89238 73.8088 8.63681C73.4055 8.1016 72.8847 7.66272 72.2852 7.35281C71.6857 7.04289 71.0229 6.8699 70.3461 6.8467L68.075 6.78769L68.059 19.4679Z" fill="#111827"/>
<path d="M89.2705 43.5025V0.00102997H109.631V7.1103H98.555V17.4496H108.763V24.5628H98.555V36.2831H110.047V43.5064L89.2705 43.5025Z" fill="#111827"/>
<path d="M116.185 43.6364C118.292 43.6364 120 41.9559 120 39.883C120 37.8101 118.292 36.1297 116.185 36.1297C114.079 36.1297 112.371 37.8101 112.371 39.883C112.371 41.9559 114.079 43.6364 116.185 43.6364Z" fill="#111827"/>
</svg>